<?xml version="1.0" encoding="utf-8"?>
<!-- Generator: Adobe Illustrator 16.0.3, SVG Export Plug-In . SVG Version: 6.00 Build 0)  -->
<!DOCTYPE svg PUBLIC "-//W3C//DTD SVG 1.1//EN" "http://www.w3.org/Graphics/SVG/1.1/DTD/svg11.dtd">
<svg version="1.1" id="Capa_1" xmlns="http://www.w3.org/2000/svg" xmlns:xlink="http://www.w3.org/1999/xlink" x="0px" y="0px"
	 width="960px" height="560px" viewBox="0 0 960 560" enable-background="new 0 0 960 560" xml:space="preserve">
<g>
	<g id="Fondo_Rojo">
		<path fill="#E24237" d="M265.083,132c0,0,16.401,45.664,33.15,56.828c0.887,0.592-3.848-60.379,58.308-98.265
			c0,0-3.552,18.943-2.072,21.311c0,0,33.15-53.868,73.107-47.356c0,0-11.543,11.543-10.063,15.687
			c1.48,4.144,17.167-14.207,31.078-14.207c13.912,0,18.35,4.439,18.35,4.439s25.751-9.768,50.613-34.333
			c0,0,50.02-50.613,89.386-25.75c0,0.592-31.67,3.256-39.957,42.917c0,0.592-2.96,13.319-2.96,22.791s-6.808,22.791-6.808,22.791
			l-2.072,5.328c0,0,13.712-5.721,23.582-33.938c0-0.197,14.013,23.678,10.854,55.644c-0.198,0.592,0.194,8.483,6.706,0.987
			c6.512-7.497,9.472-9.867,9.472-9.867s0.005,11.444-4.931,25.65c-4.935,14.208,17.065-10.951,17.065-10.063
			s5.031,50.613-25.158,95.601c-17.759,26.343,6.511,7.104,5.032,5.032c3.848-5.032,10.655-13.319,10.655-13.319
			s8.878,21.606-8.288,68.075c-26.639,42.918-26.935,39.958-54.461,67.189c0,0-4.438,24.27-16.278,40.549
			c-16.279,10.654-16.574,11.543-28.71,22.494c0,1.48-4.736,0.592,1.185,9.472c5.92,8.879,22.198,28.118,22.198,28.118
			s6.215,3.255-11.544,2.367c-17.759-0.889-43.805-6.807-43.805-6.807s-5.328-6.217-11.839,3.551
			c-6.512,9.768-10.063,5.92-26.342,35.519c-20.719,26.639-28.415,36.109-42.325,44.397c-13.911,8.287-36.11,15.391-36.11,15.391
			s0.888,7.104,8.879-50.021c-4.439-38.774-3.551-37.886-10.655-52.685c0,0-2.368-8.88-10.064-1.48
			c-11.248,3.848-20.718,5.328-24.566,5.919c2.96-7.991-0.296,5.92,7.992-26.638l0.888-17.758c0,0,1.48-5.329-5.92-9.768
			c-5.328-6.513-7.795-8.39-7.795-8.39s-2.763-3.848,2.467-8.584c1.48-4.24,5.131-12.334,1.48-13.318
			c-3.651-0.985-7.4,0.296-11.347,2.367c0,0-2.564,1.776-5.328-4.24c-2.763-6.018-8.879-9.176-9.866-39.268
			c0.691-4.932,1.579-11.051,5.131-19.93c1.084-3.256-11.444-29.203-11.444-29.203s-5.328-8.386,0.888-13.812
			c1.283-2.467,2.367-3.355-7.795-16.97c-10.163-13.616-20.127-49.33-18.451-55.545C256.696,169.294,261.827,141.472,265.083,132z"
			/>
	</g>
	<g id="Fondo_negro">
		<path fill="#18121B" d="M267.747,165.742c0,0,8.879,25.65,42.425,52.092c0,0.396,10.852,7.5,2.959-7.892
			c-2.959-15.391-10.063-51.896,27.034-93.333c-0.396,0-11.644,23.086,0.196,47.553c0.789,0.988,6.116,8.091,8.682-7.892
			c6.116-16.379,14.997-53.869,58.801-78.535c0.591-0.592-24.862,31.374,15.195,17.364c4.144-4.144,23.282-15.391,23.282-15.391
			s4.34-4.736,16.771,3.355c13.813-0.789,22.691-5.131,41.438-19.931c18.746-14.798,52.292-50.316,72.024-46.369
			c0,0-23.091,9.867-22.692,50.317c-6.313,37.097-18.744,48.344-18.744,48.344s-7.895,23.482,21.111,5.723
			c13.813-12.827,20.521-22.691,20.521-22.691s5.923,38.477-12.232,61.168c-0.593,1.579-3.945,7.892,4.935,4.932
			c8.879-2.96,13.218-10.852,13.218-10.852l-8.88,16.771c0,0-3.747,8.484,8.486,2.564c7.496-6.907,21.703-15.786,21.703-15.786
			s-0.791,35.321-24.071,67.878c-6.905,11.248-8.287,19.535-9.272,24.074c-2.96,3.552-11.446,15.391-11.446,15.391
			s-5.92,7.892,7.894,3.947c13.417-5.328,29.007-16.18,29.007-16.18s-3.75,45.978-44.396,83.469
			c-0.2,0.193,4.735-37.89-17.366-19.144c-22.101,18.746-25.457,20.915-22.101,30.191c0,0,5.525,9.078,20.523,0.985
			c0.593-0.592,6.706,27.821-25.852,49.924c-20.323,16.181-25.85,16.181-19.931,28.021c5.92,11.839,9.868,18.151,9.868,18.151
			s-18.943,1.776-32.559-8.879c-5.328-0.394,0.396-7.502-28.414,23.678c-11.444,14.009-11.64,16.376-28.611,44.597
			c-9.075,8.88-18.35,22.689-38.081,28.609c-0.987,0,19.535-52.682-15.391-103.396c0-0.592-2.565-6.114-10.458,0.592l-10.656,6.905
			c0,0,6.313-24.664,4.341-35.12c-1.973-7.502-10.458-13.222-10.458-13.222s-1.381-2.364,1.184-13.218
			c2.563-10.854-5.524-26.643-20.324-20.325c-0.987,0.985-15.786-21.703,0.592-48.738c2.564-4.54-8.287-13.813-14.207-32.559
			c0,0-1.381-5.722,6.116-12.826c0.987-5.131-10.852-10.458-18.351-27.23C274.059,216.061,267.943,216.648,267.747,165.742z"/>
	</g>
	<g id="Cara">
		<path fill="#EBE8F0" d="M529.647,273.411c0.896-3.38,2.012-6.918,2.132-10.428c0.161-4.832-4.283-1.869-6.493-1.335
			c-1.748,0.423-3.931,0.169-6.122-0.106c-0.207-0.017-0.396-0.046-0.591-0.074c-3.438-0.433-6.803-0.775-8.449,1.502
			c-1.095,1.51-2.19,2.678-3.464,3.512c0.025,0.693-0.566,1.504-1.482,1.369c-0.264-0.037-0.506-0.108-0.758-0.186
			c-0.35,0.114-0.696,0.232-1.044,0.359c-5.972,5.63-13.056,10.586-13.056,10.586s6.908-14.208,10.46-24.666
			s-1.185-6.708-1.185-6.708s-14.603,10.852-22.099,17.167c0.988,1.38-9.471,21.311-8.878,20.126c0.099-0.42,0.18-0.8,0.265-1.197
			c-0.115,0.04-0.223,0.108-0.344,0.108c-0.817,0.625-2.089-0.095-1.855-1.247c0.427-2.103,1.669-3.904,2.09-5.979
			c0.745-3.674-1.385-4.756-4.569-2.969c-1.829,1.026-3.357,2.241-4.47,3.744c0.245,0.387,0.338,0.897,0.157,1.309
			c-1.276,2.96-0.277,6.336-1.507,9.303c-1.008,2.43-2.811,4.021-4.188,6.235c-0.296,0.479-0.765,0.618-1.196,0.537
			c-2.881,5.185-5.063,9.527-9.562,13.897c-4.053,3.936-7.915,7.887-12.902,10.634c-2.269,1.249-5.691,0.51-8.108,0.419
			c-3.29-0.12-6.587-0.187-9.88-0.219c-4.203-0.044-10.368-0.534-13.368,3.167c-1.57,1.936-3.653,3.217-5.182,5.103
			c-0.566,0.708-1.373,0.393-1.745-0.222c-1.468,1.471-2.407,2.182-2.566,0.989c0-30.323,12.525-39.087,14.061-40.292
			c-4.391,4.405-4.59,13.655-4.59,13.655c-2.96,7.3,3.748,4.932,3.748,4.932s8.684-7.892,20.127-15.786
			c8.467-5.839,33.191-21.364,45.506-29.063c0.615-0.537,1.002-1.303,1.631-1.815c0.652-0.532,1.404-0.953,1.997-1.551
			c0.037-0.039,0.081-0.051,0.118-0.081c1.781-1.867,3.565-3.729,5.087-5.851c2.107-2.937,4.112-5.943,6.337-8.796
			c0.936-1.202,2.6,0.486,1.674,1.675c-0.197,0.252-0.371,0.518-0.563,0.774c1.187-1.161,2.289-2.387,3.143-3.797
			c0.576-0.953,1.813-0.571,2.137,0.213c13.901-16.416,8.111-19.979,8.111-19.979s-4.234,2.194-8.329,2.092
			c-0.076,0.726-0.89,1.452-1.792,1.05c-3.309-1.48-9.242-6.644-7.878-10.882c-2.764-6.849-3.406-14.889-2.551-21.873
			c-0.147-15.895,5.178-28.849,9.696-38.663c0.855-1.859,1.676-3.496,2.434-4.941c-0.771-0.028-1.559-0.855-1.088-1.773
			c1.473-2.893,3.416-5.432,5.379-7.98c-0.764-0.197-2.368,0.043-5.148,0.488c-0.066,0.009-0.131,0.025-0.196,0.039
			c0.36,0.623,0.237,1.507-0.659,1.684c-2.027,0.397-4.046,0.761-6.058,1.253c-0.974,0.24-2.431,0.566-3.707,1.105
			c0.046,0.379-0.121,0.754-0.606,0.959c-0.571,0.245-1.135,0.498-1.704,0.748c-0.296,0.467-0.759,0.601-1.185,0.515
			c-10.842,4.779-21.195,10.403-29.617,18.901c-0.474,0.481-1.04,0.389-1.454,0.079c-0.34,0.109-0.72,0.06-1.053-0.261
			c-0.184,0.157-0.339,0.294-0.448,0.391c0.07-0.199,0.144-0.423,0.225-0.667c-1.232-1.603-0.553-3.824,0.146-5.572
			c0.712-1.778,1.47-3.531,2.126-5.33c0.18-0.495,1.787-4.812,0.11-3.806c-0.712,0.426-1.374,0.014-1.634-0.574
			c-1.125,0.898-2.408,2.03-3.698,3.055c0.829,0.327,1.232,1.586,0.224,2.107c-2.867,1.473-5.582,2.881-7.972,5.113
			c-1.06,0.992-1.524,2.12-1.622,3.297c0.691-0.287,1.681,0.053,1.709,1.036c0.076,2.729,1.378,5.43,2.677,7.797
			c0.65-0.425,1.836-0.121,1.948,0.936c0.425,4.091,2.331,8.128,4.122,11.8c0.116,0.123,0.213,0.273,0.276,0.462
			c1.077,3.284,3.039,6.412,4.615,9.483c0.801,1.556,1.581,3.131,2.442,4.654c4.291,5.92,9.077,13.137,10.412,17.549
			c-0.789,11.444-8.485,22.099-15.391,30.979c-15.786,14.404-22.691,9.275-23.679,9.076c-20.323-5.131-18.351-8.683-18.351-8.683
			s-2.958-11.444-4.735-30.585c-1.426-5.589-1.635-10.945-1.529-15.486c-0.679,0.178-1.526-0.176-1.529-1.089
			c-0.011-2.756,0.792-5.48,0.686-8.227c0.228-1.443-0.479-2.308-2.122-2.597c-0.448,0.418-0.848,0.883-1.197,1.39
			c-0.462,0.657-0.9,1.336-1.399,1.968c-0.531,0.661-1.105,1.158-1.804,1.653c-1.51,1.068-2.312,2.393-3.439,3.788
			c-1.25,1.547-2.76,2.675-4.371,3.749c-0.192,0.21-0.389,0.416-0.588,0.619c-8.489,13.435-16.469,31.904-16.821,32.722
			c-0.084,0.333-0.151,0.673-0.203,1.011c0,0.118-0.021,0.231-0.016,0.352c0.007,0.227-0.05,0.407-0.133,0.564
			c-0.292,1.228-2.221,1.196-2.289-0.111c-0.181-0.185-0.316-0.416-0.316-0.75v-0.074c0-0.412,0.181-0.703,0.432-0.893
			c0.002-0.03,0.002-0.058,0.005-0.087c-0.366-0.165-0.653-0.495-0.658-1.018c-0.01-1.708-0.21-3.271-0.846-4.867
			c-0.121-0.301-0.091-0.555,0-0.775l-4.484-7.508c0,0-0.363-0.89-0.965-2.314c-0.235-0.025-0.475-0.115-0.687-0.349
			c-2.696-2.976-4.688-6.652-6.473-10.225c-1.587-3.179-4.236-5.964-5.226-9.388c-0.07-0.245-0.043-0.495,0.052-0.721
			c-14.14,15.002-17.68,39.377-17.68,39.377s-5.328,19.139-11.248,24.664c-6.314,5.524-3.552,7.891-3.552,7.891
			c9.867,26.047,21.114,27.034,29.007,31.375c9.437,11.73,13.346,0.248,14.562-5.813c-0.564,5.822,0.354,8.005,3.197,15.285
			c4.931,22.891,2.367,45.385-4.933,72.023c-7.3,26.638,13.811,16.376,14.208,15.783c13.219-14.799,21.31-22.101,35.517-33.939
			c14.208-11.84,2.564-18.943,5.131-17.361c20.322,5.92,23.086,7.298,20.521,9.471c-34.136,15.784-54.065,41.04-61.958,47.552
			c-13.813,1.581-13.22,3.158-8.288,8.287c13.812,13.416,16.771,22.102,22.691,34.532c2.96,15.392,8.879,4.343,8.879,4.343
			s-1.973,32.56-2.564,44.001c-4.54,11.839-2.96,15.788,2.564,10.262c25.651-21.703,25.455-39.856,25.455-39.856
			s-3.947-16.182-4.34-16.575c9.866,10.063,9.866,6.905,9.866,6.905l15.075-13.463c0.268-0.38,0.54-0.758,0.743-1.179
			c0.274-0.569,0.607-1.073,1.083-1.421c0.157-0.282,0.311-0.564,0.476-0.851c0.228-0.393,0.567-0.546,0.912-0.555
			c1.928-2.21,4.356-3.991,6.665-5.92c4.213-3.528,9.559-4.046,11.25-10.151c0.217-0.79,0.973-0.962,1.569-0.735
			c0-0.005,0.002-0.009,0.002-0.013c-0.096-0.037-0.191-0.062-0.289-0.14c-2.589-1.961-5.989-2.548-7.896-5.379
			c-0.007-0.009-0.005-0.018-0.012-0.027c-3.463-1.572-6.452-3.866-9.319-6.383c-2.034-1.789-4.624-3.906-4.967-6.766
			c-0.027-0.217,0.042-0.397,0.144-0.559c-1.961-2.336-4.96-5.925-6.026-2.396c-0.667,2.207-1.541,4.444-2.78,6.4
			c-1.618,2.558-3.99,5.397-7.318,5.139c-0.382-0.032-0.858-0.199-1.024-0.588c-0.806-1.904-0.328-2.012-1.004-4.49
			c-1.946-7.108-8.535-2.803-11.506-1.374c-1.178,0.569-2.22-0.855-1.619-1.687l-8.822,2.812c0,0,3.948-1.185,7.3-4.537
			c3.354-3.354,10.853-10.461,12.827-6.317c7.892,14.013,10.459-3.944,10.459-3.944s1.184-5.722,11.247-25.455
			c10.063-19.733,18.746,4.144,18.154-3.945c-1.973-12.823,2.368-31.373,2.368-31.373s14.68-37.317,16.242-20.941
			c0.514,0.087,0.999,0.443,1.06,1.096c0.208,2.22,0.578,4.421,0.834,6.634c-0.508,3.773,1.514,5.278,6.065,4.521
			c0.259-0.401,0.516-0.804,0.774-1.207c1.321-2.066,3.758-3.581,5.772-4.911c5.406-3.568,10.477-8.308,17.19-8.733
			c0.22-0.015,0.38,0.056,0.534,0.132c0.152-0.07,0.328-0.109,0.541-0.096c1.105,0.074,1.98,0.267,2.902,0.912
			c1.082,0.763,1.539,2.228,2.908,2.631c1.868,0.548,2.299-0.122,3.23-1.624c0.658-1.061,1.328-2.105,2.072-3.109
			c0.039-0.049,0.086-0.066,0.127-0.105c1.195-2.338,2.794-4.545,4.059-6.815c1.429-2.564,2.703-5.17,3.963-7.795
			c-0.297-0.338-0.428-0.827-0.183-1.339C525.832,285.229,528.024,279.561,529.647,273.411z"/>
		<path fill="#9C90AA" d="M311.452,338.692c0,0-5.624-20.421,11.248-35.22c3.552-2.468,5.228,2.862,5.228,6.611
			c0,3.747,0.296,13.612,19.239,22.984c4.736,1.776,3.156,0.693,1.48,6.91c-2.269,2.96-6.709,4.139-3.749,16.473
			c-0.493,11.84-0.788,14.8-0.788,14.8s-2.172,12.333-5.427-1.186c-3.256-13.513-6.413-18.942-11.84-26.341
			c-5.427-7.4-10.556-3.256-10.556-3.256S311.651,343.331,311.452,338.692z"/>
		<path fill="#EBE8F0" d="M433.988,383.778l6.906-14.008c0,0,1.776-6.415,7.4,0.985c3.947,2.765,7.4,5.229,7.4,5.229
			s3.551,0.593,4.144,6.905c0.295,2.47,4.735,25.357,14.306,39.859c2.96,3.945-0.789,5.722-5.724,1.976
			c-4.934-3.751-25.65-18.744-34.53-34.532C431.916,387.233,432.312,386.738,433.988,383.778z"/>
		<path fill="#EBE8F0" d="M456.878,365.331l8.386,7.599c0,0,1.184,3.551,5.131-4.144c0.1-0.297,6.907-10.36,6.907-10.36
			s3.453-2.664,0.493-8.389c-2.96-5.721-1.184,1.48-9.571-30.881c0,0-3.455-5.624-5.427,6.02
			C460.133,333.365,455.398,339.381,456.878,365.331z"/>
	</g>
	<g id="Ojos_Cuerno">
		<path fill="#E83F30" d="M433.396,257.583c0.928-1.607,1.978-3.13,3.115-4.588c0.379-0.716,0.747-1.438,1.127-2.183
			c0.917-1.805,1.965-3.528,3.11-5.179c0.882-2.571,2.107-4.925,3.587-7.168c0.15-0.352,0.328-0.687,0.492-1.029
			c-0.289-0.278-0.46-0.673-0.338-1.124c0.844-3.178,2.054-6.029,2.562-9.324c0.098-0.61,0.529-0.855,0.995-0.844
			c0.04-0.483,0.046-0.957,0.005-1.416c-0.074-0.883-0.137-3.265-0.504-5.42c-0.123-0.085-0.233-0.196-0.326-0.335
			c-0.552-0.826-1.042-1.644-1.485-2.488c-0.885-0.932-1.926-1.785-2.384-3.024c-0.152-0.412-0.06-0.745,0.148-0.992
			c-3.658-4.868-7.441-9.689-10.387-15.053c-1.896-3.453-4.523-7.515-5.295-11.539c-0.48-0.911-0.813-1.88-0.922-2.877
			c-0.289-0.261-0.553-0.532-0.747-0.839c-0.139-0.03-0.277-0.058-0.417-0.085c-0.393-0.079-0.733-0.451-0.828-0.828
			c-0.365-1.429-0.129-2.398,0.583-3.633c-0.181-0.136-0.333-0.319-0.387-0.61c-0.044-0.233-0.088-0.462-0.131-0.698
			c-1.228-0.437-2.17-1.579-1.649-3.09c-0.279-0.536-0.389-1.116-0.313-1.72c-0.804-0.688-1.079-1.808-0.777-2.885
			c-1.22-0.613-1.953-1.691-1.077-3.016c-0.328-0.439-0.541-0.966-0.657-1.577c-1.531-0.683-1.827-1.801-1.05-3.367
			c0.065-0.134,0.194-0.227,0.316-0.319c0.026-0.037,0.044-0.077,0.073-0.111c-1.184,0.238-2.239-0.259-2.169-2.072
			c0.011-0.252,0.079-0.659,0.194-1.128c-0.343-0.691-0.234-1.454,0.272-1.954c-0.37-0.548-0.52-1.2-0.448-1.896
			c-0.189-0.086-0.37-0.137-0.571-0.273c-0.485-0.333-0.627-0.77-0.544-1.337c0.073-0.501,0.213-0.916,0.394-1.288
			c-1.017-1.124-1.379-2.925-0.567-4.146c-0.165-0.541-0.069-1.07,0.142-1.639c-0.407-0.032-0.823-0.12-1.346-0.368
			c-0.509-0.24-0.627-0.844-0.543-1.336c0.113-0.687,0.391-1.163,0.737-1.499c-0.14-0.18-0.24-0.405-0.238-0.703
			c0.005-0.733,0.113-1.364,0.377-1.963c0.021-0.391,0.046-0.787,0.055-1.182c0.051-1.718-0.133-3.397,0.103-5.113
			c0.027-0.189,0.088-0.344,0.169-0.469c-0.071-0.472-0.113-0.745-0.113-0.745c-15.096,12.728-21.311,104.185-4.144,121.352
			c5.484,5.487,10.604,7.697,15.127,7.93C429.257,259.585,431.324,259.762,433.396,257.583z"/>
		<path fill="#E83F30" d="M434.494,314.243c1.076-0.794,2.031-1.751,2.798-2.971c2.646-4.197,4.746-8.52,6.604-13.088
			c0.139-2.708,0.267-5.483,1.083-7.793c-0.583-0.206-0.791-0.896-0.622-1.472c-0.4,0.081-0.809,0.135-1.223,0.14
			c-0.862,0.538-1.874,0.793-2.933,0.798c-1.031,0.547-2.108,1.001-3.223,1.267c-4.241,2.995-9.314,5.395-13.729,8.012
			c-3.576,2.124-8.825,4.089-11.762,7.479c0.365,0.419,0.478,1.044-0.042,1.544c-0.441,0.422-1.068,0.859-1.669,1.328
			c-0.223,0.62-0.389,1.271-0.451,1.978c-0.04,0.441-0.277,0.737-0.581,0.919c1.208,0.898,3.72,1.643,4.25,1.788
			c4.438,1.196,8.875,1.968,13.454,2.162C429.668,315.952,432.278,315.313,434.494,314.243z"/>
		<path fill="#E83F30" d="M348.994,322.02c0,0-21.31-25.898-16.575-8.14c4.736,17.76,13.616,15.243,13.616,15.243
			S353.137,328.532,348.994,322.02z"/>
	</g>
	<g id="sombra_ojo_cuerno">
		<path fill="#AA2018" d="M416.049,131.191c0,0-2.87,34.694,29.221,83.156c2.554,4.109,5.129,7.911,1.96,15.386
			c-3.166,7.474-0.86,9.738-12.879,27.44c-1.217,3.298-8.125,2.935-9.98-7.861c-1.859-10.796-5.208-19.533-5.208-19.533
			s-3.431-7.209,6.334-14.947c2.74-5.97,9.185-9.911-2.572-3.804c-11.758,6.104-9.089-5.066-9.089-5.066
			S406.073,156.035,416.049,131.191z"/>
		<path fill="#AA2018" d="M417.808,315.212c0,0-8.287,0,3.256-7.399c11.542-7.4,18.942-10.36,18.942-10.36s4.144-3.551,0.296,5.92
			c-3.848,9.472,8.878-5.623,5.031-15.391c-1.48-5.327-14.799,4.439-14.799,4.439s-17.462,11.248-21.311,15.982
			C405.377,313.14,410.408,315.212,417.808,315.212z"/>
	</g>
	<g id="Sombra1">
		<path fill="#625977" d="M466.646,385.655l5.918,17.76c0,0,2.861,4.24,6.808-0.989c3.947-5.227,14.996-14.601,18.746-14.8
			c3.453-1.674,12.432-6.114,16.575-19.433c0.692-3.751,0.396-4.245-7.694-4.736c-8.092-0.494-20.423-13.813-3.651-43.115
			c2.764-5.622-8.288-0.69-14.7,5.921c-6.411,6.612-11.839,7.894-7.202,18.252c4.636,10.36,3.947,8.579,0,16.474
			c-3.948,7.894-9.868,18.749-9.868,18.749s-0.788,1.377-5.228,1.279C464.869,381.411,466.646,385.655,466.646,385.655z"/>
		<path fill="#625977" d="M498.02,221.583c-13.221,2.368-13.221,4.539-18.155-9.275c-7.892-39.266,16.772-74.982,16.772-74.982
			c-8.287-0.395-40.45,15.587-48.541,23.678c-8.484,8.091-4.34-2.564-3.355-6.116c3.946-9.867-0.592-6.315-0.592-6.315
			s-2.368,1.973-6.708,5.524c-11.247,4.932-7.104,10.852-7.104,10.852s11.444,22.099,11.05,21.113
			c0-5.327,2.369-6.907,17.167-20.718c14.799-13.812,10.851,1.579,8.879,8.484c-5.524,49.921,3.552,44.2,5.525,65.115
			c1.348,14.294-1.718,19.808-4.116,22.072c0.007,0.022,0.023,0.046,0.03,0.071c17.29-11.09,27.854-25.519,29.739-30.234
			C500.583,225.923,501.57,220.598,498.02,221.583z"/>
		<path fill="#EBE8F0" d="M323.49,319.553c0,0,6.216,12.036,15.587,13.516c3.256,0.593,5.327,2.169-1.776,3.45
			c-7.103,1.286-15.094,0.791-17.166-8.089C318.063,319.553,319.444,312.647,323.49,319.553z"/>
		<path fill="#635977" d="M585.235,180.738c0,0-30.786,22.295-47.948,31.57c-13.814,10.26-30.98,21.706-23.681,40.45
			c0,0.591,5.524,1.579,5.92-5.92s41.832-27.625,41.832-27.625s2.566-4.144-1.379,8.288c0,0.592-1.382,5.92-1.382,5.92
			s6.512-3.159,10.654-8.683c4.146-5.524,17.168-31.767,17.959-38.082C587.997,180.34,590.166,179.357,585.235,180.738z"/>
	</g>
	<g id="Sombra2">
		<path fill="#9C90AA" d="M470.049,165.002c0,0-9.028,27.674,1.63,61.416c1.48,5.624,7.253,26.639-2.664,34.483
			c-9.917,7.844-34.779,21.459-34.779,21.459s28.859-46.025,22.494-63.487c-6.364-17.463-7.695-17.021-13.615-26.639
			c-5.918-9.62-2.664-12.877,7.696-19.981C461.169,165.15,467.977,151.239,470.049,165.002z"/>
		<path fill="#9C90AA" d="M413.368,273.183c0,0-15.835,13.47-15.539,31.524c0,2.516,2.516,6.659,8.435-1.479
			c1.776-1.632,8.14-7.104,8.14-7.104l2.519-2.223c0,0-8.439,3.256-4.736-2.96c0,0-1.333-3.848,3.256-15.095
			C420.033,264.599,413.368,273.183,413.368,273.183z"/>
		<path fill="#9C90AA" d="M400.148,266.768c0,0-21.705,24.666-27.625,34.531c-0.592,0.987-3.552,4.144-7.499-2.369
			c-3.947-6.511-5.328-10.458-5.328-12.431c0-1.972,5.919,3.553,8.288,2.564C370.353,288.076,400.148,266.768,400.148,266.768z"/>
		<path fill="#9C90AA" d="M325.363,296.565c0,0,14.8,7.892,17.167,11.247c1.58,1.578,6.314,0.196,7.3-5.131
			c0.985-5.328-0.591-5.724,3.947-17.168c0.591-1.578-10.063,10.853-18.547,9.867C326.746,294.396,325.363,296.565,325.363,296.565z
			"/>
		<path fill="#9C90AA" d="M404.686,349.052c0,0-13.615-8.282-22.099,0.99c-0.593,0.591,3.355-20.719,13.219-12.83
			c0,0,2.764,5.722,11.247,11.446L404.686,349.052z"/>
		<path fill="#9C90AA" d="M419.288,360.498c0,0-24.862,28.267-32.04,37.664c-7.176,9.393-20.866,3.698-20.866,3.698
			S397.682,368.786,419.288,360.498z"/>
		<path fill="#9C90AA" d="M378.443,411.11c0,0,27.23-7.991,32.705-9.62c0,0,3.702,1.333,4.736,8.437
			c1.039,3.7,3.406,0.591,5.182-1.036c1.775-1.633,4.735-19.535,11.839-7.553c7.104,11.987,21.461,19.239,21.461,19.239
			s2.811,1.929-1.926,7.104c-4.739,5.18-7.695,4.736-19.535,15.095c0,0,4.886-9.471-0.743-25.75c0,0-1.331-6.512-5.475,1.336
			c-1.925,1.924-11.247,10.804-11.247,10.804s-1.776-0.592-1.776-3.256c0-1.184-0.74-19.535-17.759-11.839
			C389.246,415.551,378.443,411.11,378.443,411.11z"/>
		<path fill="#9C90AA" d="M484.107,397.592c0,0-2.959,2.47-5.919,6.415c-2.96,3.945-5.723-0.495-5.723-0.495
			s0.395-11.344,8.091-26.837c0,0,2.564-6.512,4.044,0.791c1.38,1.382,4.144-3.455,4.144-3.455s3.156-4.639,11.051-3.945
			c3.552,0.2,11.148-3.453,11.148-3.453l3.65-1.281c0,0,0.592,0.096-0.196,3.648c-0.788,3.552-6.216,13.323-15.787,18.749
			C498.117,388.319,496.934,385.947,484.107,397.592z"/>
		<path fill="#9C90AA" d="M341.15,198.103l20.719,37.885l0.591,4.933c0,0,0.196,6.708-6.315,0.196
			c-6.511-6.511-23.283-29.399-23.283-29.399l-1.381-0.592C331.481,211.126,337.203,200.274,341.15,198.103z"/>
		<path fill="#9C90AA" d="M379.185,203.036c0,0,17.757-26.934,15.54-7.696c0,10.063,3.848,43.363,4.886,46.619
			C399.606,241.957,389.542,243.584,379.185,203.036z"/>
	</g>
	<g id="Sombras3">
		<path fill="#9C90AA" d="M390.479,328.73c0,0,32.954,3.649,45.237-1.976c0.443,0.296-0.889-1.184-8.735-1.184
			c0,0-2.959-2.071,5.479-3.996c0,0,30.239-18.105,36.159-37.147c0,0,2.86-6.856,0.492-14.404
			c-3.205,0.493-10.853,3.256-12.58,10.806c0,0.787,0.345,18.598-25.801,36.354c-5.228,1.776-15.391,1.085-22.987,1.085
			C400.147,318.269,398.866,321.529,390.479,328.73z"/>
		<path fill="#9C90AA" d="M477.448,264.451c0,0,3.999,17.759-1.184,25.454c0.296,0.444,10.806,5.772,25.901-40.253
			c1.776-4.886-3.354-2.912-9.472,2.812L477.448,264.451z"/>
		<path fill="#9C90AA" d="M532.353,260.948c-0.393-3.205-1.48-2.564-1.48-2.564s-4.194,1.826-5.18,2.071
			c-8.388,3.06-12.581-1.579-12.581-1.627c-1.48-1.728-2.119-0.1-2.223,0.049c-0.591,2.123-7.348,9.076-7.348,9.076
			c6.115,13.811,4.045,16.97,4.243,19.239c-0.196,5.919-3.452,2.466-3.651,1.972c-2.171-4.439-3.061-1.677-2.96-1.972
			c-5.132,10.852-18.055,19.731-18.844,20.226c-4.333,4.886-9.917,1.533-11.991-0.019c-0.01,0.012-0.019,0.027-0.029,0.039
			c0.972,1.416,1.022,4.252,1.022,4.171c-0.346-0.099,0.445,9.125,0.542,10.212c1.973,8.881,7.3,2.664,7.596,2.368
			c7.892-8.684,10.064-8.584,12.826-11.051c11.348-8.387,15.096-2.269,15.096-1.973c1.58,6.611,7.3-0.987,7.399-1.284
			C532.848,282.754,532.353,261.099,532.353,260.948z"/>
	</g>
	<g id="Capa_1_copia_8">
	</g>
</g>
</svg>
